
<svg width="65px" height="30px" viewBox="112 146 65 30" version="1.1" xmlns="http://www.w3.org/2000/svg" xmlns:xlink="http://www.w3.org/1999/xlink">
    <!-- Generator: Sketch 40 (33762) - http://www.bohemiancoding.com/sketch -->
    <desc>Created with Sketch.</desc>
    <defs></defs>
    <g id="folder_gray_plus" stroke="none" stroke-width="1" fill="none" fill-rule="evenodd" transform="translate(112.000000, 146.000000)">
        <g id="Created-with-Sketch.">
            <g id="cv-icon-navbar-folder">
                <g id="cross" transform="translate(52.242641, 17.677670) rotate(45.000000) translate(-52.242641, -17.677670) translate(43.742641, 9.177670)" fill="#ACABAB">
                    <polygon id="Triangle" transform="translate(8.730983, 8.186851) rotate(135.000000) translate(-8.730983, -8.186851) " points="8.73098256 4.00201645 15.9470484 12.3716847 5.32918979 12.3716847 1.51491673 12.3716847 4.01659778 9.47007031"></polygon>
                </g>
                <g id="folder" fill="#6E6E6E">
                    <rect id="Rectangle" x="0" y="0" width="20" height="20" rx="5"></rect>
                    <path d="M0,11.9911381 C0,7.5777544 3.58133444,4 8.00566201,4 L31.9907763,4 C34.7572942,4 37,6.23493942 37,8.99096922 L37,22.9959766 L37,24.0009151 C37,26.7618335 34.7688083,29 31.9907763,29 L5.00922367,29 C2.24270583,29 0,26.763668 0,24.0009625 L0,24.0009625 L0,11.9911381 L0,11.9911381 Z" id="Rectangle"></path>
                </g>
            </g>
        </g>
    </g>
</svg>
