<svg xmlns="http://www.w3.org/2000/svg" xmlns:xlink="http://www.w3.org/1999/xlink" version="1.1" x="0px" y="0px" viewBox="0 0 32 32" enable-background="new 0 0 32 32" xml:space="preserve"><g><path d="M15.771,16.229l5.572,0.701c0.528,0.066,0.966-0.397,0.884-0.923c-0.175-1.121-0.859-2.097-1.835-2.651   c-0.232-0.132-0.272-0.452-0.056-0.607c0.408-0.294,0.698-0.75,0.766-1.29c0.13-1.034-0.603-1.978-1.637-2.108   c-1.034-0.13-1.978,0.603-2.108,1.637c-0.068,0.539,0.1,1.053,0.423,1.439c0.171,0.205,0.052,0.505-0.205,0.575   c-1.082,0.296-1.987,1.072-2.434,2.115C14.933,15.605,15.243,16.163,15.771,16.229z"></path><path d="M9.76,18.159l1.761,0.221c0.021,0.003,0.042,0.004,0.063,0.004c0.248,0,0.464-0.185,0.495-0.438   c0.034-0.274-0.16-0.524-0.434-0.559l-1.761-0.221c-0.273-0.04-0.524,0.159-0.559,0.434S9.486,18.125,9.76,18.159z"></path><path d="M9.547,20.374l1.761,0.221c0.007,0.001,0.014,0.001,0.021,0.001l4.845,0.605c0.021,0.003,0.042,0.004,0.063,0.004   c0.248,0,0.463-0.185,0.495-0.438c0.034-0.274-0.159-0.524-0.434-0.559l-6.269-0.782l0,0.001l-0.358-0.045   c-0.273-0.04-0.524,0.159-0.559,0.434S9.273,20.339,9.547,20.374z"></path><path d="M13.365,18.612l3.493,0.439c0.021,0.003,0.042,0.004,0.063,0.004c0.248,0,0.463-0.185,0.495-0.438   c0.034-0.273-0.159-0.524-0.434-0.559L13.49,17.62c-0.271-0.04-0.524,0.159-0.559,0.434S13.092,18.578,13.365,18.612z"></path><path d="M18.939,18.306c-0.269-0.039-0.523,0.159-0.559,0.434c-0.034,0.274,0.16,0.524,0.434,0.559l2.984,0.375   c0.021,0.003,0.042,0.004,0.063,0.004c0.248,0,0.464-0.185,0.495-0.438c0.034-0.274-0.16-0.524-0.434-0.559L18.939,18.306z"></path><path d="M21.646,20.88l-3.314-0.417c-0.273-0.04-0.523,0.159-0.559,0.434c-0.034,0.274,0.16,0.524,0.434,0.559l3.314,0.417   c0.021,0.003,0.042,0.004,0.063,0.004c0.248,0,0.463-0.185,0.495-0.438C22.114,21.164,21.92,20.914,21.646,20.88z"></path><path d="M21.138,23.05l-0.357-0.045l0-0.002l-7.038-0.883c-0.272-0.037-0.523,0.158-0.559,0.434   c-0.034,0.274,0.159,0.524,0.434,0.559l4.074,0.511c0.002,0,0.004,0.002,0.006,0.002l3.314,0.417   c0.021,0.003,0.042,0.004,0.063,0.004c0.248,0,0.463-0.185,0.495-0.438C21.606,23.335,21.411,23.085,21.138,23.05z"></path><path d="M9.207,22.558l2.737,0.345c0.021,0.003,0.042,0.004,0.063,0.004c0.248,0,0.463-0.185,0.495-0.438   c0.034-0.274-0.159-0.524-0.434-0.559l-2.737-0.345c-0.272-0.04-0.523,0.159-0.559,0.434C8.739,22.273,8.934,22.523,9.207,22.558z"></path><path d="M15.072,24.521l-6.018-0.757c-0.271-0.04-0.523,0.159-0.559,0.434c-0.034,0.274,0.16,0.524,0.434,0.559l6.018,0.757   c0.021,0.003,0.042,0.004,0.063,0.004c0.248,0,0.463-0.185,0.495-0.438C15.54,24.806,15.346,24.556,15.072,24.521z"></path><path d="M26.063,7.667c0.034-0.274-0.16-0.524-0.434-0.559l-0.963-0.121l-0.048-1.189c-0.012-0.275-0.239-0.494-0.521-0.479   l-9.232,0.374V5.392V4.837c0-1.196-0.973-2.169-2.169-2.169s-2.169,0.973-2.169,2.169v0.371L9.16,5.036   C9.029,5.02,8.895,5.057,8.791,5.137C8.687,5.219,8.618,5.338,8.602,5.47l-0.06,0.479L6.998,6.012   c-0.275,0.011-0.49,0.244-0.479,0.52l0.475,11.722l-1.055,8.387c-0.034,0.274,0.16,0.524,0.434,0.559l0.989,0.124l0.048,1.19   c0.006,0.132,0.063,0.257,0.161,0.347c0.093,0.086,0.214,0.133,0.339,0.133c0.007,0,0.014,0,0.021,0l9.605-0.389l5.307,0.668   c0.021,0.003,0.042,0.004,0.062,0.004c0.11,0,0.219-0.037,0.307-0.105c0.104-0.081,0.173-0.2,0.189-0.332l0.06-0.474l1.571-0.064   c0.132-0.006,0.257-0.063,0.347-0.161s0.138-0.227,0.133-0.359l-0.482-11.886L26.063,7.667z M11.528,4.837   c0-0.645,0.524-1.169,1.169-1.169s1.169,0.524,1.169,1.169v0.555V6.95v2.219c0,0.227-0.184,0.411-0.41,0.411   s-0.41-0.184-0.41-0.411V5.181c0-0.276-0.224-0.5-0.5-0.5s-0.5,0.224-0.5,0.5v0.218l-0.518-0.065V4.837z M22.471,28.217   L6.993,26.27L9.531,6.091l2.515,0.316v2.762c0,0.778,0.633,1.411,1.41,1.411s1.41-0.633,1.41-1.411V6.95V6.762l10.143,1.276   L22.471,28.217z"></path></g></svg>





