
<svg width="58px" height="40px" viewBox="101 241 58 40" version="1.1" xmlns="http://www.w3.org/2000/svg" xmlns:xlink="http://www.w3.org/1999/xlink">
    <!-- Generator: Sketch 40 (33762) - http://www.bohemiancoding.com/sketch -->
    <desc>Created with Sketch.</desc>
    <defs></defs>
    <g id="noun_job_gray_plus" stroke="none" stroke-width="1" fill="none" fill-rule="evenodd" transform="translate(101.000000, 241.000000)">
        <g id="Created-with-Sketch.">
            <g id="noun_job_plus_gray">
                <polygon id="Triangle" fill="#ACABAB" transform="translate(49.128461, 23.655777) rotate(180.000000) translate(-49.128461, -23.655777) " points="49.1284611 18.3115543 58 29 44.9462464 29 40.2569222 29 43.3325262 25.2945069"></polygon>
                <g id="cv-icon" fill="#6E6E6E">
                    <path d="M15.1492589,20.4093446 L23.6834486,21.4603489 C24.4921443,21.5593022 25.1629941,20.8651297 25.0374012,20.0765017 C24.7693676,18.3957944 23.7217391,16.9324847 22.2268775,16.1018765 C21.8715415,15.9039698 21.8102767,15.4241961 22.1411067,15.1918058 C22.7660079,14.7510137 23.2101779,14.0673362 23.3143281,13.2577181 C23.5134387,11.7074493 22.3907609,10.2921169 20.8070652,10.0972089 C19.2233696,9.9023008 17.7775198,11.0012824 17.5784091,12.5515512 C17.4742589,13.35967 17.7315711,14.1303065 18.2262846,14.7090335 C18.4881917,15.0163885 18.3059289,15.4661763 17.9123024,15.5711268 C16.2550889,16.0149175 14.8689723,17.1783687 14.1843379,18.7421311 C13.8657609,19.473786 14.3405632,20.3103913 15.1492589,20.4093446 L15.1492589,20.4093446 L15.1492589,20.4093446 Z" id="Shape"></path>
                    <path d="M5.94268775,23.3029797 L8.63987154,23.6343234 C8.67203557,23.6388213 8.7041996,23.6403206 8.73636364,23.6403206 C9.11620553,23.6403206 9.44703557,23.3629514 9.49451581,22.9836304 C9.54659091,22.5728241 9.24945652,22.1980009 8.82979249,22.1455257 L6.1326087,21.814182 C5.71447628,21.7542103 5.33003953,22.0525695 5.27643281,22.4648751 C5.22282609,22.8771806 5.52302372,23.2520038 5.94268775,23.3029797 L5.94268775,23.3029797 L5.94268775,23.3029797 Z" id="Shape"></path>
                    <path d="M5.61645257,26.6239132 L8.31363636,26.955257 C8.32435771,26.9567562 8.33507905,26.9567562 8.3458004,26.9567562 L15.766502,27.8638284 C15.798666,27.8683263 15.83083,27.8698256 15.8629941,27.8698256 C16.242836,27.8698256 16.5721344,27.5924564 16.6211462,27.2131353 C16.6732213,26.8023291 16.3776186,26.4275059 15.9564229,26.3750306 L6.35469368,25.2025837 L6.35469368,25.204083 L5.80637352,25.1366148 C5.38824111,25.0766431 5.00380435,25.3750024 4.95019763,25.7873079 C4.89659091,26.1996134 5.19678854,26.571438 5.61645257,26.6239132 L5.61645257,26.6239132 L5.61645257,26.6239132 Z" id="Shape"></path>
                    <path d="M11.4641798,23.9821594 L16.8141304,24.6403489 C16.8462945,24.6448468 16.8784585,24.6463461 16.9106225,24.6463461 C17.2904644,24.6463461 17.6197628,24.3689769 17.6687747,23.9896558 C17.7208498,23.5803489 17.425247,23.2040264 17.0040514,23.1515512 L11.6556324,22.4948609 C11.2405632,22.4348892 10.8530632,22.7332485 10.7994565,23.145554 C10.7458498,23.5578595 11.0460474,23.9311834 11.4641798,23.9821594 L11.4641798,23.9821594 L11.4641798,23.9821594 Z" id="Shape"></path>
                    <path d="M20.0014328,23.5233758 C19.5894269,23.4649033 19.2003953,23.7617633 19.1452569,24.1740688 C19.0931818,24.5848751 19.3903162,24.9596983 19.8099802,25.0121735 L24.380336,25.5744083 C24.4125,25.5789062 24.444664,25.5804055 24.4768281,25.5804055 C24.85667,25.5804055 25.1875,25.3030363 25.2349802,24.9237152 C25.2870553,24.512909 24.9899209,24.1380858 24.5702569,24.0856106 L20.0014328,23.5233758 L20.0014328,23.5233758 L20.0014328,23.5233758 Z" id="Shape"></path>
                    <path d="M24.1475296,27.3825554 L19.0717391,26.7573503 C18.6536067,26.6973786 18.2707016,26.9957379 18.2155632,27.4080434 C18.1634881,27.8188496 18.4606225,28.1936728 18.8802866,28.246148 L23.9560771,28.8713531 C23.9882411,28.875851 24.0204051,28.8773503 24.0525692,28.8773503 C24.4324111,28.8773503 24.7617095,28.5999811 24.8107213,28.2206601 C24.8643281,27.8083545 24.5671937,27.4335314 24.1475296,27.3825554 L24.1475296,27.3825554 L24.1475296,27.3825554 Z" id="Shape"></path>
                    <path d="M23.3694664,30.6360207 L22.8226779,30.5685526 L22.8226779,30.565554 L12.0431324,29.2416785 C11.6265316,29.1862046 11.2420949,29.4785667 11.1869565,29.8923715 C11.1348814,30.3031777 11.4304842,30.6780009 11.8516798,30.7304762 L18.091502,31.4966148 C18.0945652,31.4966148 18.0976285,31.4996134 18.1006917,31.4996134 L23.1764822,32.1248185 C23.2086462,32.1293164 23.2408103,32.1308157 23.2729743,32.1308157 C23.6528162,32.1308157 23.9821146,31.8534465 24.0311265,31.4741254 C24.0862648,31.0633192 23.7875988,30.688496 23.3694664,30.6360207 L23.3694664,30.6360207 L23.3694664,30.6360207 Z" id="Shape"></path>
                    <path d="M5.09570158,29.8983687 L9.28774704,30.4156247 C9.31991107,30.4201226 9.3520751,30.4216219 9.38423913,30.4216219 C9.76408103,30.4216219 10.0933794,30.1442527 10.1423913,29.7649316 C10.1944664,29.3541254 9.89886364,28.9793022 9.47766798,28.926827 L5.28562253,28.409571 C4.86902174,28.3495992 4.48458498,28.6479585 4.42944664,29.060264 C4.37890316,29.4710702 4.67756917,29.8458934 5.09570158,29.8983687 L5.09570158,29.8983687 L5.09570158,29.8983687 Z" id="Shape"></path>
                    <path d="M14.0786561,32.8414804 L4.86136364,31.7065158 C4.44629447,31.6465441 4.06032609,31.9449033 4.00518775,32.3572089 C3.95311265,32.7680151 4.25024704,33.1428383 4.66991107,33.1953135 L13.8872036,34.3302782 C13.9193676,34.334776 13.9515316,34.3362753 13.9836957,34.3362753 C14.3635375,34.3362753 14.692836,34.0589062 14.7418478,33.6795851 C14.7954545,33.2687789 14.4983202,32.8939557 14.0786561,32.8414804 L14.0786561,32.8414804 L14.0786561,32.8414804 Z" id="Shape"></path>
                    <path d="M30.9126976,7.57239981 C30.9647727,7.16159359 30.6676383,6.78677039 30.2479743,6.73429514 L28.7730237,6.55288072 L28.6995059,4.77022159 C28.6811265,4.35791608 28.3334486,4.02957096 27.9015316,4.05206035 L13.7616107,4.61279585 L13.7616107,4.16150872 L13.7616107,3.32940123 C13.7616107,1.53624705 12.2713439,0.0774351721 10.4395257,0.0774351721 C8.60770751,0.0774351721 7.11744071,1.53624705 7.11744071,3.32940123 L7.11744071,3.88563885 L5.02371542,3.62776049 C4.82307312,3.60377181 4.61783597,3.65924564 4.45854743,3.77918906 C4.29925889,3.90213107 4.19357708,4.08054691 4.16907115,4.27845356 L4.07717391,4.9966148 L1.71235178,5.09107025 C1.29115613,5.10756247 0.961857708,5.45689769 0.978705534,5.8707025 L1.7062253,23.4454125 L0.0903656126,36.0199811 C0.0382905138,36.4307874 0.335424901,36.8056106 0.755088933,36.8580858 L2.26986166,37.0439981 L2.34337945,38.8281565 C2.35256917,39.0260632 2.43987154,39.2134748 2.58997036,39.3484111 C2.73241107,39.4773503 2.91773715,39.5478171 3.10918972,39.5478171 L3.14135375,39.5478171 L17.8525692,38.9645922 L25.9808794,39.9661198 C26.0130435,39.9706176 26.0452075,39.9721169 26.0758399,39.9721169 C26.2443182,39.9721169 26.4112648,39.9166431 26.5460474,39.8146912 C26.705336,39.6932485 26.8110178,39.5148326 26.8355237,39.316926 L26.9274209,38.6062612 L29.3335968,38.5103065 C29.5357708,38.5013107 29.7272233,38.415851 29.8650692,38.2689203 C30.002915,38.1219896 30.0764328,37.9285809 30.0687747,37.7306742 L29.3305336,19.9100802 L30.9126976,7.57239981 L30.9126976,7.57239981 L30.9126976,7.57239981 Z M8.65059289,3.32940123 C8.65059289,2.36235738 9.45316206,1.57672796 10.4410573,1.57672796 C11.4289526,1.57672796 12.2315217,2.36235738 12.2315217,3.32940123 L12.2315217,4.16150872 L12.2315217,6.49740688 L12.2315217,9.82433758 C12.2315217,10.164677 11.9497036,10.4405469 11.6035573,10.4405469 C11.2574111,10.4405469 10.9755929,10.164677 10.9755929,9.82433758 L10.9755929,3.84515794 C10.9755929,3.43135314 10.6325099,3.09551155 10.2097826,3.09551155 C9.78705534,3.09551155 9.44397233,3.43135314 9.44397233,3.84515794 L9.44397233,4.17200377 L8.65059289,4.07454974 L8.65059289,3.32940123 L8.65059289,3.32940123 L8.65059289,3.32940123 Z M25.4111166,38.3828666 L1.70469368,35.4637435 L5.59194664,5.20951438 L9.44397233,5.6832909 L9.44397233,9.82433758 C9.44397233,10.9907874 10.4134881,11.9398397 11.6035573,11.9398397 C12.7936265,11.9398397 13.7631423,10.9907874 13.7631423,9.82433758 L13.7631423,6.49740688 L13.7631423,6.21553984 L29.2983696,8.12863744 L25.4111166,38.3828666 L25.4111166,38.3828666 L25.4111166,38.3828666 Z" id="Shape"></path>
                </g>
            </g>
        </g>
    </g>
</svg>
